<svg width="16" height="16" viewBox="0 0 16 16" fill="none" xmlns="http://www.w3.org/2000/svg">
<rect width="16" height="16" rx="8" fill="#FF1A2F"/>
<path d="M5.18427 12V10.884C5.69627 10.46 6.19227 10.04 6.67227 9.624C7.16027 9.208 7.59227 8.796 7.96827 8.388C8.35227 7.98 8.65627 7.584 8.88027 7.2C9.11227 6.808 9.22827 6.428 9.22827 6.06C9.22827 5.716 9.13227 5.412 8.94027 5.148C8.75627 4.884 8.44827 4.752 8.01627 4.752C7.57627 4.752 7.24427 4.896 7.02027 5.184C6.79627 5.472 6.68427 5.82 6.68427 6.228H5.19627C5.21227 5.612 5.34827 5.1 5.60427 4.692C5.86027 4.276 6.20027 3.968 6.62427 3.768C7.04827 3.56 7.52427 3.456 8.05227 3.456C8.90827 3.456 9.57227 3.692 10.0443 4.164C10.5243 4.628 10.7643 5.232 10.7643 5.976C10.7643 6.44 10.6563 6.892 10.4403 7.332C10.2323 7.772 9.95627 8.196 9.61227 8.604C9.26827 9.012 8.89627 9.396 8.49627 9.756C8.09627 10.108 7.70827 10.436 7.33227 10.74H10.9683V12H5.18427Z" fill="white"/>
</svg>
